<svg id="SvgjsSvg1001" width="288" height="288" xmlns="http://www.w3.org/2000/svg" version="1.1" xmlns:xlink="http://www.w3.org/1999/xlink" xmlns:svgjs="http://svgjs.com/svgjs"><defs id="SvgjsDefs1002"></defs><g id="SvgjsG1008" transform="matrix(1,0,0,1,0,0)"><svg xmlns="http://www.w3.org/2000/svg" data-name="Layer 1" viewBox="0 0 200 200" width="288" height="288"><path fill="#a39df1" d="M100 175.69a5 5 0 01-3.37-1.31L48.06 130H29.31a5 5 0 01-5-5V75a5 5 0 015-5H48.06L96.63 25.62A5 5 0 01105 29.31V170.69a5 5 0 01-5 5zM34.31 120H50a5 5 0 013.37 1.31l41.63 38V40.65l-41.63 38A5 5 0 0150 80H34.31zM119.4 122.53a5 5 0 01-3.54-8.53 19.82 19.82 0 000-28 5 5 0 017.07-7.07 29.83 29.83 0 010 42.14A5 5 0 01119.4 122.53z" class="color231f20 svgShape"></path><path fill="#a39df1" d="M137.08,140.21a5,5,0,0,1-3.54-8.54,44.78,44.78,0,0,0,0-63.34,5,5,0,1,1,7.07-7.07,54.78,54.78,0,0,1,0,77.48A5,5,0,0,1,137.08,140.21Z" class="color231f20 svgShape"></path><path fill="#a39df1" d="M152,155.13a5,5,0,0,1-3.54-8.53,65.91,65.91,0,0,0,0-93.2,5,5,0,1,1,7.07-7.07,75.9,75.9,0,0,1,0,107.34A5,5,0,0,1,152,155.13Z" class="color231f20 svgShape"></path></svg></g></svg>